<svg xmlns="http://www.w3.org/2000/svg" viewBox="0 0 330.66 329.82"><defs><style>.cls-1{fill:#fff;}</style></defs><g id="Layer_2" data-name="Layer 2"><g id="main"><g id="ะกั3"><g id="Cc3"><path class="cls-1" d="M211.66,135c.43-.22.78-.38,1.09-.58l43.17-27.95c.18-.12.46-.22.52-.39a2.06,2.06,0,0,0,.24-1.24c-.21-.54-.77-.54-1.28-.29a6,6,0,0,0-.64.38l-42.95,27.82c-.28.18-.63.34-.76.6a1.58,1.58,0,0,0-.13,1.06C211,134.63,211.38,134.77,211.66,135ZM106.2,73.76c-.9,0-1.31.59-1.11,1.23a3.57,3.57,0,0,0,.43.79l27.91,43.1c.14.21.25.51.44.58.4.14.93.32,1.24.16s.31-.74.29-1.13-.3-.58-.48-.86L113.12,84q-3-4.7-6.08-9.36A5.31,5.31,0,0,0,106.2,73.76ZM75.33,225.7c.47-.26.86-.45,1.22-.69l40-25.88,3.4-2.21a1,1,0,0,0,.41-1.42c-.36-.59-.92-.48-1.45-.18-.12.06-.24.15-.35.22l-43.17,28a2,2,0,0,0-.73.63,1.31,1.31,0,0,0-.06,1C74.67,225.36,75,225.49,75.33,225.7Zm144.91-70.27,3.9-.8,23.69-4.9,23.76-4.93c.88-.19,1.31-.65,1.13-1.23s-.81-.78-1.48-.64l-12.61,2.6-32.42,6.7c-1.94.4-3.89.79-5.83,1.2-.58.13-1.12.46-.93,1.12C219.55,154.93,220,155.2,220.24,155.43ZM187.92,271.19l-.16-.17-.18-1-5.07-24.49-5.31-25.72c-.17-.8-.62-1.18-1.21-1.07s-.84.67-.68,1.46q2,9.63,4,19.25,2.78,13.5,5.57,27c.32,1.56.65,3.13,1,4.69.12.55.46,1,1.07.89C187.3,272,187.59,271.49,187.92,271.19Zm-128.6-84,3.71-.76,28.54-5.89,19.16-4c.85-.18,1.29-.66,1.1-1.25-.24-.75-.83-.77-1.48-.64l-19.25,4L64.18,184.2c-1.59.33-3.18.65-4.77,1-.56.13-1,.49-.85,1.11C58.67,186.67,59.11,186.94,59.32,187.17Zm96.85-76.86-.14-.16c0-.13,0-.27-.07-.4L152.3,92q-3-14.28-5.89-28.54c-.33-1.57-.64-3.13-1-4.69-.21-.9-1.07-1.29-1.56-.69a1.61,1.61,0,0,0-.26,1.2c1.17,5.83,2.38,11.65,3.58,17.47q2.94,14.28,5.89,28.54c.34,1.65.67,3.29,1,4.93.13.6.49,1.09,1.15.9C155.61,111.06,155.86,110.6,156.17,110.31Zm40.73,99.78c-.81.08-1.19.37-1.13,1a2.56,2.56,0,0,0,.4,1l28.05,43.3c.13.21.26.5.46.57s.86.26,1.11.1a1.35,1.35,0,0,0,.36-1,2.36,2.36,0,0,0-.5-.93q-10.05-15.51-20.09-31-3.87-6-7.74-11.93A7,7,0,0,0,196.9,210.09Zm-85.73-54.76c.22-.2.67-.43.81-.78.22-.55-.16-.94-.69-1.12a6.27,6.27,0,0,0-.88-.21l-32.06-6.86-18-3.86c-1-.21-1.52,0-1.66.62s.26,1,1.21,1.26l.24.06L71,146.75l34.72,7.43ZM156,219.46c-.19-.22-.43-.7-.8-.84-.59-.21-1,.23-1.13.8a5.09,5.09,0,0,0-.14.56q-5.37,25.07-10.73,50.14c-.23,1.09,0,1.67.62,1.8s1-.32,1.28-1.39l2.34-11q3.63-16.91,7.25-33.83C155.09,223.72,155.51,221.73,156,219.46ZM188.27,58.89c-.21-.23-.44-.68-.8-.82-.54-.21-.93.17-1.11.7a3.55,3.55,0,0,0-.17.64c-.79,3.66-1.56,7.32-2.35,11l-8.37,39.16c-.24,1.1-.06,1.67.58,1.81s1.08-.31,1.32-1.45q4.84-22.68,9.7-45.38C187.46,62.73,187.84,60.92,188.27,58.89ZM220.1,174.63c-.22.19-.67.42-.82.77-.22.54.16.93.69,1.13a5.41,5.41,0,0,0,.72.18l32.37,6.92,17.77,3.81c1,.21,1.59,0,1.74-.6s-.29-1.08-1.36-1.31l-10.9-2.33-34.72-7.43ZM75.57,103.85c-.29.19-.67.31-.78.55a1.31,1.31,0,0,0,0,1,2.47,2.47,0,0,0,.81.68L116,132.6c1,.65,2,1.3,3,1.92a.89.89,0,0,0,1.31-.23A.92.92,0,0,0,120,133a5.08,5.08,0,0,0-.61-.42L115.46,130q-19.33-12.72-38.68-25.43C76.42,104.29,76,104.1,75.57,103.85Zm59.9,107.22c-.22-.28-.35-.66-.6-.75a1.28,1.28,0,0,0-1,.07,2.75,2.75,0,0,0-.73.88l-28,42.62c-.64,1-.67,1.6-.1,2s1,.1,1.68-.86l11.58-17.62,16.53-25.14C135.05,211.88,135.23,211.51,135.47,211.07Zm120.24,15c.29-.2.67-.33.77-.58a1.29,1.29,0,0,0-.06-1,2,2,0,0,0-.74-.63l-42.76-28.11c-.25-.17-.51-.44-.78-.44s-.95.08-1.12.34,0,.82.15,1.16.55.44.85.64l8.56,5.63,33.92,22.29C254.86,225.67,255.26,225.86,255.71,226.11ZM226.77,74.87c-.22-.28-.35-.64-.6-.76a1.18,1.18,0,0,0-.92,0,2.42,2.42,0,0,0-.69.79l-28.11,42.76c-.17.25-.44.52-.43.78a1.54,1.54,0,0,0,.37,1.12,1.25,1.25,0,0,0,1.09-.14,3.22,3.22,0,0,0,.75-1l9.35-14.23L226.1,76.09C226.34,75.72,226.52,75.32,226.77,74.87Zm1.4,233c-.17-.47-.28-.81-.42-1.13q-5.28-12.4-10.57-24.79-2.7-6.34-5.41-12.7c-.25-.59-.6-1.1-1.36-.87-.59.18-.72.79-.38,1.63,0,.07.07.14.1.22q8,18.66,15.92,37.33c.12.27.21.63.43.78a1.36,1.36,0,0,0,1,.29C227.77,308.5,228,308.08,228.17,307.82Zm41.6-186.94c.5-.19.89-.32,1.27-.48l25.62-10.92,11.63-5c.9-.38,1.23-.88,1-1.45s-.82-.66-1.74-.29l-.07,0q-18.7,8-37.41,16c-.27.11-.63.22-.77.44a1.49,1.49,0,0,0-.24,1C269.11,120.5,269.52,120.67,269.77,120.88Zm-247,106.63c.45-.16.79-.26,1.12-.4l37.25-15.88c1.06-.45,1.4-.91,1.15-1.51s-.82-.68-1.88-.23L23.07,225.41a1.69,1.69,0,0,0-.78.43,1.51,1.51,0,0,0-.26,1C22.1,227.13,22.51,227.31,22.76,227.51ZM121.54,60.84c-.2-.52-.34-.93-.51-1.34L108.61,30.39l-3.54-8.29c-.26-.59-.66-1-1.34-.74s-.62.89-.39,1.49l.12.3,16,37.41a2,2,0,0,0,.5.83,1.21,1.21,0,0,0,1,.19C121.16,61.49,121.33,61.1,121.54,60.84ZM225.37,21.56c-.19-.24-.37-.65-.63-.71a1.27,1.27,0,0,0-1,.26,2.51,2.51,0,0,0-.52,1Q218,35,212.81,47.93c-1.6,4-3.21,8-4.8,12-.31.8-.15,1.36.43,1.54s1.06-.24,1.31-.81l.12-.31Q217.46,41.46,225,22.61C225.15,22.31,225.23,22,225.37,21.56ZM311,222.47c0-.76-.59-.95-1.12-1.17l-37.78-15.18c-.25-.1-.55-.28-.77-.22s-.85.29-1,.57a1.33,1.33,0,0,0,.34,1.05c.18.23.56.31.87.44L309.07,223a3.3,3.3,0,0,0,.95.27A.82.82,0,0,0,311,222.47ZM21.08,106.56c-.23.19-.68.38-.74.65a1.6,1.6,0,0,0,.34,1.07c.12.2.46.28.71.38l37.7,15.15c.25.1.55.3.77.24a1.65,1.65,0,0,0,1-.59c.11-.24-.14-.76-.37-1a2.13,2.13,0,0,0-.88-.43L22.17,106.92C21.87,106.8,21.55,106.71,21.08,106.56ZM124.82,270.44c-.19-.22-.37-.62-.63-.69a1.31,1.31,0,0,0-1,.24,2.15,2.15,0,0,0-.5.92q-7.56,18.76-15.1,37.54a1.89,1.89,0,0,0-.24.95,1.26,1.26,0,0,0,.56.87,1.44,1.44,0,0,0,1-.28c.2-.13.28-.46.39-.71q7.6-18.93,15.21-37.85C124.62,271.15,124.69,270.86,124.82,270.44Zm92-126.39c.42-.15.71-.23,1-.35l16.06-6.94c1-.45,1.35-.88,1.11-1.45s-.81-.65-1.8-.22l-16,6.91a2.17,2.17,0,0,0-.84.49,1.2,1.2,0,0,0-.23.95C216.17,143.7,216.56,143.86,216.79,144.05Zm-20.9,89.49c-.14-.42-.22-.71-.34-1q-3.48-8.07-7-16.13c-.11-.25-.2-.58-.4-.71s-.74-.38-1-.27-.43.57-.5.91a1.48,1.48,0,0,0,.23.77q3.5,8.07,7,16.13a1.87,1.87,0,0,0,.45.78,1.29,1.29,0,0,0,.95.22C195.56,234.16,195.71,233.76,195.89,233.54ZM97.06,195.23c.39-.13.66-.2.91-.3l16.36-7.08c.59-.25,1.19-.58.87-1.33s-1-.59-1.55-.33l-.31.13-15.91,6.87a2.05,2.05,0,0,0-.84.49,1.2,1.2,0,0,0-.23.95C96.44,194.89,96.84,195.06,97.06,195.23Zm47.65-81.43c-.17-.44-.27-.75-.4-1q-3-6.9-6-13.79c-.38-.88-.76-1.77-1.15-2.65-.24-.53-.64-.88-1.24-.63s-.57.81-.4,1.35a3.08,3.08,0,0,0,.16.38q3.48,8.07,7,16.13a1.69,1.69,0,0,0,.46.77,1.22,1.22,0,0,0,.94.21C144.37,114.43,144.52,114,144.71,113.8Zm72.56,71c-.23.17-.65.33-.72.59a1.36,1.36,0,0,0,.26,1c.15.22.51.31.79.42l16.27,6.45a1.88,1.88,0,0,0,.86.23c.31-.05.77-.25.84-.48a1.54,1.54,0,0,0-.26-1c-.1-.18-.41-.26-.63-.35l-16.5-6.54C217.92,185,217.66,184.93,217.27,184.8Zm-30.49-70.3c.18.23.34.66.6.72a1.42,1.42,0,0,0,1-.27c.22-.15.3-.51.41-.79Q192,106,195.25,97.89a2.08,2.08,0,0,0,.23-1,1,1,0,0,0-.49-.75,1.3,1.3,0,0,0-1,.21,1.5,1.5,0,0,0-.4.7q-3.27,8.2-6.51,16.43C187,113.81,186.92,114.09,186.78,114.5ZM96.36,136.35c-.23.2-.62.38-.69.64a1.24,1.24,0,0,0,.27.94,1.76,1.76,0,0,0,.79.42l6,2.38,10.59,4.19c.59.24,1.2.3,1.46-.41s-.21-1-.77-1.25l-.31-.12-16.27-6.45C97.11,136.57,96.79,136.49,96.36,136.35Zm49.45,80.25c-.19-.24-.36-.65-.62-.72a1.41,1.41,0,0,0-1,.3c-.22.15-.3.51-.41.79l-6.42,16.19c-.09.23-.26.49-.21.7.08.38.2.9.48,1.07.45.28.89,0,1.14-.48a3.76,3.76,0,0,0,.2-.46q3.25-8.2,6.5-16.42C145.58,217.29,145.67,217,145.81,216.6ZM203.54,205a6,6,0,0,0,.58.75l5.26,4.9c.12.11.26.3.38.3.4,0,.92.05,1.17-.17s0-.72,0-1.09c0-.18-.28-.33-.44-.48l-5-4.67a2.89,2.89,0,0,0-.72-.54C204.11,203.68,203.51,204.11,203.54,205Zm-76.83-1c.06-.81-.53-1.26-1.14-1a1.79,1.79,0,0,0-.59.44q-2.52,2.69-5,5.38c-.43.46-.71,1-.15,1.51s1.07.14,1.49-.32l5-5.32A5.44,5.44,0,0,0,126.71,204Zm78.81-76.88a1.12,1.12,0,0,0,.47-.23c1.85-2,3.69-3.94,5.53-5.91.06-.06.13-.15.12-.21,0-.36,0-.84-.22-1s-.69-.12-1,0-.38.3-.55.48l-4.5,4.84a4.49,4.49,0,0,0-.68.83A.84.84,0,0,0,205.52,127.07Zm-77.78-2a4,4,0,0,0-.56-.76c-1.76-1.67-3.54-3.32-5.31-5-.46-.43-1-.73-1.52-.18s-.17,1.06.29,1.49q2.69,2.5,5.38,5a1.88,1.88,0,0,0,.62.4C127.21,126.21,127.72,125.83,127.74,125.05Zm39.2-23.56a.85.85,0,0,0-.93-.94c-.57,0-.79.43-.84.94a6.91,6.91,0,0,0,0,.91c.1,2.23.2,4.46.28,6.68,0,.63.13,1.19.89,1.25.58,0,.93-.49.9-1.33,0-1.18-.1-2.36-.16-3.55M117.76,212.93c-.2-.28-.36-.73-.56-.74a1.79,1.79,0,0,0-1.24.28c-1.72,1.58-3.39,3.23-5.07,4.85-.45.44-.79.94-.26,1.5s1.05.23,1.5-.21l5-4.81A8.62,8.62,0,0,0,117.76,212.93Zm0-95.82c.28-.22.71-.41.71-.61a1.85,1.85,0,0,0-.33-1.23c-1.59-1.72-3.23-3.39-4.86-5.07-.44-.45-1-.75-1.49-.2s-.2,1,.21,1.45q2.43,2.53,4.87,5A5.62,5.62,0,0,0,117.73,117.11ZM221,111.68c-.22-.27-.4-.69-.62-.7a1.68,1.68,0,0,0-1.17.31c-1.74,1.61-3.43,3.26-5.13,4.91-.43.42-.72.92-.22,1.44s1,.29,1.44-.13q2.59-2.49,5.16-5A4.91,4.91,0,0,0,221,111.68Zm-7.52,101.15c-.27.25-.66.44-.69.67a1.51,1.51,0,0,0,.28,1.1c1.62,1.75,3.3,3.46,5,5.18.42.44.92.7,1.43.2s.25-1-.16-1.45q-2.46-2.57-4.93-5.11A5.85,5.85,0,0,0,213.49,212.83ZM164.84,17.19h-.09c0,1,0,2.09,0,3.13,0,.64,0,1.27.82,1.39.57.1.93-.41,1-1.35.05-1.4.07-2.8.09-4.2a22.42,22.42,0,0,0,0-2.72,1.13,1.13,0,0,0-.73-.8c-.27,0-.66.34-.89.63s-.12.52-.13.79C164.83,15.1,164.84,16.15,164.84,17.19Zm57.88,204.57c-.28.24-.7.43-.71.64a1.68,1.68,0,0,0,.32,1.17c1.52,1.67,3.09,3.29,4.64,4.91.44.46,1,.76,1.5.22s.21-1-.19-1.45q-2.33-2.46-4.68-4.88A4.92,4.92,0,0,0,222.72,221.76Zm-120.2,6.43a8.46,8.46,0,0,0,1-.7c1.55-1.45,3.07-2.92,4.6-4.38.16-.15.4-.31.42-.49a1.67,1.67,0,0,0-.09-1.1,1,1,0,0,0-1-.12c-1.91,1.74-3.77,3.52-5.61,5.33a1.06,1.06,0,0,0,0,.91C101.88,227.86,102.23,228,102.52,228.19Zm171,43.83a5,5,0,0,0-.56-.78c-1.34-1.42-2.7-2.82-4.06-4.22a3.06,3.06,0,0,0-.91-.82,1.16,1.16,0,0,0-1,.1,1.39,1.39,0,0,0-.14,1c0,.21.28.4.45.57q2.13,2.24,4.29,4.46a2.92,2.92,0,0,0,.68.59C272.86,273.29,273.55,272.88,273.53,272ZM64.71,266.84c-.24-.27-.43-.67-.66-.69a1.46,1.46,0,0,0-1.1.28c-1.69,1.56-3.34,3.18-5,4.79-.41.4-.65.88-.19,1.37s1,.31,1.44-.11c1.65-1.57,3.3-3.16,4.93-4.75A5.5,5.5,0,0,0,64.71,266.84ZM273.86,58c-.21-.28-.38-.72-.57-.74a1.85,1.85,0,0,0-1.24.31c-1.66,1.52-3.27,3.1-4.89,4.67-.43.42-.72.93-.24,1.44s1,.27,1.5-.17l4.81-4.64A6.61,6.61,0,0,0,273.86,58ZM64.57,62.88a5.36,5.36,0,0,0-.57-.8c-1.32-1.4-2.66-2.78-4-4.16-.24-.26-.49-.52-.76-.76a.84.84,0,0,0-1.25,0,.86.86,0,0,0,0,1.26,2.61,2.61,0,0,0,.27.31c1.49,1.55,3,3.09,4.47,4.63a2.28,2.28,0,0,0,.71.53C64,64.08,64.59,63.65,64.57,62.88Zm164,39a4.35,4.35,0,0,0-.78.52q-2.37,2.23-4.72,4.5c-.62.6-.73,1.17-.28,1.55s1.07.16,1.51-.26q2.37-2.23,4.72-4.49a2.15,2.15,0,0,0,.51-.73C229.77,102.44,229.38,101.92,228.6,101.9Zm-119.24,5.16a2.53,2.53,0,0,0-.38-.64c-1.57-1.69-3.17-3.36-4.77-5-.11-.11-.26-.28-.39-.28-.35,0-.8,0-1,.19s-.18.64-.12,1,.3.45.49.65c1.42,1.5,2.85,3,4.27,4.47a2.86,2.86,0,0,0,.62.54C108.67,108.27,109.35,107.89,109.36,107.06ZM167,4.44h-.09c0-1.13,0-2.25,0-3.38,0-.58-.26-1.08-.9-1.06s-.86.51-.85,1.1c0,2.14,0,4.29.05,6.44,0,.58.25,1.08.88,1.08s.91-.51.92-1.13ZM55.61,53.33a5.16,5.16,0,0,0-.56-.78q-2.14-2.13-4.31-4.21c-.18-.17-.39-.4-.6-.41a1.37,1.37,0,0,0-1,.22,1.18,1.18,0,0,0-.12.89,1.29,1.29,0,0,0,.44.59l4.3,4.21a2,2,0,0,0,.67.47C55.06,54.54,55.62,54.13,55.61,53.33ZM277.2,55a1.79,1.79,0,0,0,.55-.28c1.61-1.62,3.21-3.25,4.78-4.91a.75.75,0,0,0-.06-1.22c-.28-.18-.78,0-1.18,0-.11,0-.21.17-.3.27-1.41,1.44-2.82,2.87-4.22,4.31a2.16,2.16,0,0,0-.47.66C276.06,54.39,276.47,55,277.2,55ZM81.53,131.26a2.38,2.38,0,0,0-2.35-2.2,2.08,2.08,0,0,0-2.07,2,2.42,2.42,0,0,0,2.4,2.24A2.06,2.06,0,0,0,81.53,131.26Zm170.56,69.63a2.06,2.06,0,0,0,2.06-2,2.41,2.41,0,0,0-2.4-2.24,2.06,2.06,0,0,0-2,2.08A2.39,2.39,0,0,0,252.09,200.89ZM129.72,251.41a2.07,2.07,0,0,0,2,2.09,2.41,2.41,0,0,0,2.27-2.38,2.06,2.06,0,0,0-2.05-2A2.36,2.36,0,0,0,129.72,251.41Zm146.72,24c-.26.24-.67.43-.68.65a1.66,1.66,0,0,0,.33,1.16c1.48,1.52,3,3,4.53,4.46.44.42,1,.65,1.45.14s.2-1-.23-1.44c-1.49-1.47-3-2.94-4.49-4.39A6,6,0,0,0,276.44,275.44Zm-226.88,6.2a6.4,6.4,0,0,0,.77-.59c1.15-1.14,2.28-2.31,3.41-3.47a6.63,6.63,0,0,0,1.09-1.23,1.17,1.17,0,0,0-.08-1.08c-.21-.2-.74-.14-1.1-.08s-.38.29-.56.47c-1.34,1.38-2.69,2.76-4,4.14a2.28,2.28,0,0,0-.52.73C48.33,281.11,48.77,281.68,49.56,281.64Zm153.31-202a2.08,2.08,0,0,0-2-2.06A2.43,2.43,0,0,0,198.6,80a2.05,2.05,0,0,0,2.09,2A2.38,2.38,0,0,0,202.87,79.67ZM91.34,91.13c.27-.19.68-.34.69-.53a1.76,1.76,0,0,0-.25-1.19c-1.44-1.58-2.94-3.12-4.42-4.67-.4-.42-.9-.62-1.38-.19s-.31,1,.1,1.44q2.2,2.33,4.45,4.64A3.92,3.92,0,0,0,91.34,91.13Zm155.08-5.29c-.25-.28-.43-.68-.65-.71a1.54,1.54,0,0,0-1.11.29c-1.58,1.44-3.11,2.94-4.66,4.42-.42.4-.62.91-.2,1.38s1,.31,1.44-.11q2.31-2.17,4.59-4.38A6.22,6.22,0,0,0,246.42,85.84Zm-1.69,159.92c.28-.23.71-.4.73-.61a1.67,1.67,0,0,0-.3-1.17c-1.42-1.57-2.9-3.08-4.36-4.61-.43-.44-1-.68-1.44-.19s-.25,1,.16,1.44q2.16,2.28,4.33,4.53A6,6,0,0,0,244.73,245.76ZM91.82,239.27c-.24-.29-.42-.71-.63-.72a1.78,1.78,0,0,0-1.18.33c-1.54,1.4-3,2.86-4.55,4.3-.46.44-.74,1-.21,1.5s1,.2,1.45-.2c1.51-1.44,3-2.88,4.52-4.33A6.63,6.63,0,0,0,91.82,239.27Zm113,10.71a2.24,2.24,0,0,0-2.18-2.31,2,2,0,0,0-2,2.09,2.17,2.17,0,0,0,2.12,2.34A2,2,0,0,0,204.86,250Zm45.57-120.07a2.17,2.17,0,0,0,2.33-2.13,2,2,0,0,0-2.14-2,2.23,2.23,0,0,0-2.3,2.19A2,2,0,0,0,250.43,129.91ZM78.51,202.14a2,2,0,0,0,2.1,2.06,2.22,2.22,0,0,0,2.33-2.15,2,2,0,0,0-2.07-2A2.18,2.18,0,0,0,78.51,202.14ZM130.57,80.19a2.18,2.18,0,0,0-2.14-2.34,2,2,0,0,0-2,2.13,2.22,2.22,0,0,0,2.18,2.31A2,2,0,0,0,130.57,80.19Zm124.94-3.3c-.22-.28-.39-.69-.57-.7a1.72,1.72,0,0,0-1.18.29c-1.55,1.41-3,2.88-4.56,4.34-.43.42-.68.93-.17,1.44s1,.25,1.39-.15Q252.7,80,255,77.75A4.74,4.74,0,0,0,255.51,76.89Zm-178-1.79c-.28.22-.67.38-.69.58a1.57,1.57,0,0,0,.25,1.12c1.43,1.57,2.92,3.09,4.39,4.61.4.42.89.66,1.38.22s.32-1-.1-1.45c-1.44-1.52-2.89-3-4.36-4.53A4.52,4.52,0,0,0,77.53,75.1Zm176.2,179.74c.26-.2.65-.35.68-.55a1.52,1.52,0,0,0-.22-1.12c-1.45-1.59-2.95-3.13-4.45-4.67-.41-.42-.91-.6-1.38-.13s-.28,1,.13,1.39c1.46,1.53,2.93,3.07,4.41,4.59A4.13,4.13,0,0,0,253.73,254.84Zm-178-1.79c.24.29.41.7.63.73a1.57,1.57,0,0,0,1.11-.28c1.55-1.41,3-2.88,4.56-4.34.43-.42.71-.92.22-1.44s-1-.27-1.45.15q-2.25,2.15-4.47,4.3A5.8,5.8,0,0,0,75.74,253.05Zm24.17-22.14c-.23-.27-.41-.68-.63-.7a1.69,1.69,0,0,0-1.17.31c-1.46,1.3-2.86,2.67-4.28,4-.46.43-.77,1-.23,1.49s1,.22,1.45-.19c1.42-1.34,2.85-2.67,4.27-4A5.85,5.85,0,0,0,99.91,230.91ZM231.36,99c.21.28.38.71.59.73a1.68,1.68,0,0,0,1.18-.27c1.48-1.32,2.9-2.71,4.34-4.08.44-.42.71-.92.22-1.44s-1-.27-1.45.15l-4.27,4A6,6,0,0,0,231.36,99Zm-131.7.24c.27-.2.7-.36.72-.57a1.64,1.64,0,0,0-.26-1.18c-1.34-1.5-2.74-2.94-4.13-4.4-.41-.42-.9-.63-1.38-.18s-.33,1,.07,1.39q2.05,2.2,4.15,4.38A4.54,4.54,0,0,0,99.66,99.24Zm132,131.45c-.3.23-.72.41-.74.62a1.73,1.73,0,0,0,.29,1.17c1.3,1.46,2.67,2.86,4,4.28.43.46.95.8,1.49.26s.21-1.06-.21-1.51c-1.31-1.38-2.61-2.77-3.93-4.14A6.47,6.47,0,0,0,231.61,230.69ZM165.31,68h0c0,.94,0,1.88,0,2.81,0,.64.1,1.23.86,1.25s.91-.55.93-1.14c.07-2,.13-4,.16-5.94,0-.6-.2-1.14-.92-1.12s-.84.51-.86,1.09C165.41,65.92,165.36,66.94,165.31,68Zm98.51,195.12a4.85,4.85,0,0,0-.51-.8c-1.24-1.36-2.51-2.7-3.76-4-.11-.12-.23-.31-.37-.32-.37,0-.93-.18-1.09,0s-.16.76-.14,1.16c0,.15.22.3.35.44q1.84,2,3.71,4a2.32,2.32,0,0,0,.72.53C263.28,264.24,263.8,263.85,263.82,263.07ZM67.45,66.93a4.9,4.9,0,0,0,.53.78c1.08,1.18,2.17,2.34,3.26,3.51.25.26.48.54.75.77a.86.86,0,0,0,1.26.06.89.89,0,0,0,0-1.27,5,5,0,0,0-.37-.43c-1.2-1.29-2.4-2.59-3.61-3.87a2.2,2.2,0,0,0-.71-.54C68,65.69,67.44,66.11,67.45,66.93Zm196.24-.14a4.9,4.9,0,0,0-.78.53c-1.18,1.07-2.34,2.17-3.51,3.26a3.37,3.37,0,0,0-.85.88,1.25,1.25,0,0,0,0,1.09c.2.21.73.18,1.1.14.2,0,.39-.28.57-.45q1.94-1.8,3.86-3.61a2.16,2.16,0,0,0,.55-.7C264.92,67.36,264.51,66.79,263.69,66.79ZM67.61,263.16a7,7,0,0,0,.77-.55c1.22-1.11,2.42-2.24,3.63-3.37a2.61,2.61,0,0,0,.72-.77c.13-.31.17-.86,0-1a1.61,1.61,0,0,0-1.09-.19c-.2,0-.4.27-.58.43-1.31,1.22-2.62,2.43-3.92,3.66a2.2,2.2,0,0,0-.54.72C66.35,262.63,66.78,263.18,67.61,263.16Zm62.08-2.68a2.07,2.07,0,0,0-2-2.12,2.12,2.12,0,0,0-.11,4.23A2.13,2.13,0,0,0,129.69,260.48Zm78.66-1.08a2.1,2.1,0,0,0-2.16-2.12,2,2,0,0,0-2,2,2.15,2.15,0,0,0,2.13,2.17A2,2,0,0,0,208.35,259.4ZM127,70.62a2.16,2.16,0,0,0-2.17-2.13,2,2,0,0,0-2,2A2.12,2.12,0,0,0,125,72.68,2,2,0,0,0,127,70.62Zm80,.12a2.05,2.05,0,1,0-4.1-.19,2.08,2.08,0,0,0,1.9,2.2A2.11,2.11,0,0,0,207,70.74ZM73.33,205.58a2,2,0,0,0-2.06-2,2.14,2.14,0,0,0-2.12,2.08,2,2,0,0,0,2,2A2.12,2.12,0,0,0,73.33,205.58ZM261.1,205a2.05,2.05,0,1,0,0-4.1,2.06,2.06,0,0,0-2.13,2A2.11,2.11,0,0,0,261.1,205Zm-1.17-78.63a2.15,2.15,0,0,0,2.18-2.11,2,2,0,0,0-1.95-2,2.11,2.11,0,0,0-2.23,2A2,2,0,0,0,259.93,126.39ZM70.09,124.94A2.11,2.11,0,0,0,68,127a2.15,2.15,0,0,0,2.18,2A2.08,2.08,0,0,0,72.25,127,2.11,2.11,0,0,0,70.09,124.94ZM198.26,238.28a2,2,0,0,0-1.94,2,2,2,0,0,0,2,2,2,2,0,0,0,1.93-2A1.94,1.94,0,0,0,198.26,238.28ZM90.33,199.61a1.93,1.93,0,0,0,2-2,2,2,0,0,0-1.93-2,2,2,0,0,0-2,2A2,2,0,0,0,90.33,199.61Zm42.6-107.93a2,2,0,0,0,2-1.89A2,2,0,0,0,133,87.74a2,2,0,0,0-.07,3.94Zm108,38.66a1.94,1.94,0,0,0-2,1.92,2,2,0,0,0,2,2,2,2,0,0,0,2-2A2,2,0,0,0,240.9,130.34Zm-103.42,111a2,2,0,1,0-1.94,2A2,2,0,0,0,137.48,241.32ZM242,193.12a2,2,0,1,0,1.94,1.95A2,2,0,0,0,242,193.12ZM195.1,89.77a2,2,0,1,0,2-1.92A2,2,0,0,0,195.1,89.77ZM89.29,136.83a2,2,0,1,0-2-1.94A2,2,0,0,0,89.29,136.83Z"/><path d="M211.66,135c-.28-.21-.67-.35-.74-.59a1.58,1.58,0,0,1,.13-1.06c.13-.26.48-.42.76-.6l42.95-27.82a6,6,0,0,1,.64-.38c.51-.25,1.07-.25,1.28.29a2.06,2.06,0,0,1-.24,1.24c-.06.17-.34.27-.52.39l-43.17,28C212.44,134.6,212.09,134.76,211.66,135Z"/><path d="M106.2,73.76a5.31,5.31,0,0,1,.84.86q3.06,4.66,6.08,9.36l21.8,33.65c.18.28.46.56.48.86s-.05,1-.29,1.13-.84,0-1.24-.16c-.19-.07-.3-.37-.44-.58l-27.91-43.1a3.57,3.57,0,0,1-.43-.79C104.89,74.35,105.3,73.77,106.2,73.76Z"/><path d="M75.33,225.7c-.29-.21-.66-.34-.76-.58a1.31,1.31,0,0,1,.06-1,2,2,0,0,1,.73-.63l43.17-28c.11-.07.23-.16.35-.22.53-.3,1.09-.41,1.45.18a1,1,0,0,1-.41,1.42l-3.4,2.21L76.55,225C76.19,225.25,75.8,225.44,75.33,225.7Z"/><path d="M220.24,155.43c-.22-.23-.69-.5-.79-.88-.19-.66.35-1,.93-1.12,1.94-.41,3.89-.8,5.83-1.2l32.42-6.7,12.61-2.6c.67-.14,1.24-.09,1.48.64s-.25,1-1.13,1.23l-23.76,4.93-23.69,4.9Z"/><path d="M187.92,271.19c-.33.3-.62.76-1,.86-.61.16-.95-.34-1.07-.89-.34-1.56-.67-3.13-1-4.69q-2.79-13.5-5.57-27-2-9.63-4-19.25c-.16-.79.1-1.34.68-1.46s1,.27,1.21,1.07l5.31,25.72L187.58,270l.18,1Z"/><path d="M59.32,187.17c-.21-.23-.65-.5-.76-.86-.18-.62.29-1,.85-1.11,1.59-.35,3.18-.67,4.77-1l26.92-5.56,19.25-4c.65-.13,1.24-.11,1.48.64.19.59-.25,1.07-1.1,1.25l-19.16,4L63,186.41Z"/><path d="M156.17,110.31c-.31.29-.56.75-.92.85-.66.19-1-.3-1.15-.9-.36-1.64-.69-3.28-1-4.93q-2.94-14.26-5.89-28.54C146,71,144.77,65.15,143.6,59.32a1.61,1.61,0,0,1,.26-1.2c.49-.6,1.35-.21,1.56.69.35,1.56.66,3.12,1,4.69Q149.35,77.77,152.3,92L156,109.75c0,.13,0,.27.07.4Z"/><path d="M196.9,210.09a7,7,0,0,1,.92,1q3.88,6,7.74,11.93,10,15.51,20.09,31a2.36,2.36,0,0,1,.5.93,1.35,1.35,0,0,1-.36,1c-.25.16-.76,0-1.11-.1s-.33-.36-.46-.57L196.17,212a2.56,2.56,0,0,1-.4-1C195.71,210.46,196.09,210.17,196.9,210.09Z"/><path d="M111.17,155.33l-5.49-1.15L71,146.75l-10.82-2.31-.24-.06c-.95-.23-1.35-.65-1.21-1.26s.7-.83,1.66-.62l18,3.86,32.06,6.86a6.27,6.27,0,0,1,.88.21c.53.18.91.57.69,1.12C111.84,154.9,111.39,155.13,111.17,155.33Z"/><path d="M156,219.46c-.47,2.27-.89,4.26-1.31,6.25q-3.63,16.92-7.25,33.83l-2.34,11c-.23,1.07-.64,1.52-1.28,1.39s-.85-.71-.62-1.8q5.37-25.06,10.73-50.14a5.09,5.09,0,0,1,.14-.56c.17-.57.54-1,1.13-.8C155.55,218.76,155.79,219.24,156,219.46Z"/><path d="M188.27,58.89c-.43,2-.81,3.84-1.2,5.64q-4.84,22.69-9.7,45.38c-.24,1.14-.65,1.6-1.32,1.45s-.82-.71-.58-1.81l8.37-39.16c.79-3.66,1.56-7.32,2.35-11a3.55,3.55,0,0,1,.17-.64c.18-.53.57-.91,1.11-.7C187.83,58.21,188.06,58.66,188.27,58.89Z"/><path d="M220.1,174.63l5.49,1.14,34.72,7.43,10.9,2.33c1.07.23,1.52.67,1.36,1.31s-.72.81-1.74.6l-17.77-3.81-32.37-6.92a5.41,5.41,0,0,1-.72-.18c-.53-.2-.91-.59-.69-1.13C219.43,175.05,219.88,174.82,220.1,174.63Z"/><path d="M75.57,103.85c.45.25.85.44,1.21.68q19.35,12.7,38.68,25.43l3.94,2.59a5.08,5.08,0,0,1,.61.42.92.92,0,0,1,.26,1.32.89.89,0,0,1-1.31.23c-1-.62-2-1.27-3-1.92L75.64,106.07a2.47,2.47,0,0,1-.81-.68,1.31,1.31,0,0,1,0-1C74.9,104.16,75.28,104,75.57,103.85Z"/><path d="M135.47,211.07c-.24.44-.42.81-.64,1.15L118.3,237.36,106.72,255c-.63,1-1.13,1.21-1.68.86s-.54-1,.1-2l28-42.62a2.75,2.75,0,0,1,.73-.88,1.28,1.28,0,0,1,1-.07C135.12,210.41,135.25,210.79,135.47,211.07Z"/><path d="M255.71,226.11c-.45-.25-.85-.44-1.21-.68l-33.92-22.29L212,197.51c-.3-.2-.69-.36-.85-.64s-.32-.91-.15-1.16.73-.34,1.12-.34.53.27.78.44l42.76,28.11a2,2,0,0,1,.74.63,1.29,1.29,0,0,1,.06,1C256.38,225.78,256,225.91,255.71,226.11Z"/><path d="M226.77,74.87c-.25.45-.43.85-.67,1.22l-18.52,28.18-9.35,14.23a3.22,3.22,0,0,1-.75,1,1.25,1.25,0,0,1-1.09.14,1.54,1.54,0,0,1-.37-1.12c0-.26.26-.53.43-.78L224.56,75a2.42,2.42,0,0,1,.69-.79,1.18,1.18,0,0,1,.92,0C226.42,74.23,226.55,74.59,226.77,74.87Z"/><path d="M228.17,307.82c-.21.26-.4.68-.68.76a1.36,1.36,0,0,1-1-.29c-.22-.15-.31-.51-.43-.78q-8-18.66-15.92-37.33c0-.08-.07-.15-.1-.22-.34-.84-.21-1.45.38-1.63.76-.23,1.11.28,1.36.87q2.72,6.35,5.41,12.7,5.3,12.39,10.57,24.79C227.89,307,228,307.35,228.17,307.82Z"/><path d="M269.77,120.88c-.25-.21-.66-.38-.74-.64a1.49,1.49,0,0,1,.24-1c.14-.22.5-.33.77-.44q18.7-8,37.41-16l.07,0c.92-.37,1.49-.28,1.74.29s-.07,1.07-1,1.45l-11.63,5L271,120.4C270.66,120.56,270.27,120.69,269.77,120.88Z"/><path d="M22.76,227.51c-.25-.2-.66-.38-.73-.64a1.51,1.51,0,0,1,.26-1,1.69,1.69,0,0,1,.78-.43L60.4,209.49c1.06-.45,1.61-.38,1.88.23s-.09,1.06-1.15,1.51L23.88,227.11C23.55,227.25,23.21,227.35,22.76,227.51Z"/><path d="M121.54,60.84c-.21.26-.38.65-.65.74a1.21,1.21,0,0,1-1-.19,2,2,0,0,1-.5-.83l-16-37.41-.12-.3c-.23-.6-.29-1.2.39-1.49s1.08.15,1.34.74l3.54,8.29L121,59.5C121.2,59.91,121.34,60.32,121.54,60.84Z"/><path d="M225.37,21.56c-.14.43-.22.75-.34,1.05q-7.58,18.86-15.16,37.69l-.12.31c-.25.57-.59,1-1.31.81s-.74-.74-.43-1.54c1.59-4,3.2-8,4.8-12Q218,35,223.2,22.11a2.51,2.51,0,0,1,.52-1,1.27,1.27,0,0,1,1-.26C225,20.91,225.18,21.32,225.37,21.56Z"/><path d="M311,222.47a.82.82,0,0,1-1,.82,3.3,3.3,0,0,1-.95-.27L271.61,208c-.31-.13-.69-.21-.87-.44a1.33,1.33,0,0,1-.34-1.05c.1-.28.59-.48,1-.57s.52.12.77.22L309.9,221.3C310.43,221.52,311,221.71,311,222.47Z"/><path d="M21.08,106.56c.47.15.79.24,1.09.36L59.63,122a2.13,2.13,0,0,1,.88.43c.23.28.48.8.37,1a1.65,1.65,0,0,1-1,.59c-.22.06-.52-.14-.77-.24l-37.7-15.15c-.25-.1-.59-.18-.71-.38a1.6,1.6,0,0,1-.34-1.07C20.4,106.94,20.85,106.75,21.08,106.56Z"/><path d="M124.82,270.44c-.13.42-.2.71-.32,1q-7.59,18.93-15.21,37.85c-.11.25-.19.58-.39.71a1.44,1.44,0,0,1-1,.28,1.26,1.26,0,0,1-.56-.87,1.89,1.89,0,0,1,.24-.95q7.55-18.76,15.1-37.54a2.15,2.15,0,0,1,.5-.92,1.31,1.31,0,0,1,1-.24C124.45,269.82,124.63,270.22,124.82,270.44Z"/><path d="M216.79,144.05c-.23-.19-.62-.35-.71-.61a1.2,1.2,0,0,1,.23-.95,2.17,2.17,0,0,1,.84-.49l16-6.91c1-.43,1.57-.35,1.8.22s-.08,1-1.11,1.45l-16.06,6.94C217.5,143.82,217.21,143.9,216.79,144.05Z"/><path d="M195.89,233.54c-.18.22-.33.62-.6.71a1.29,1.29,0,0,1-.95-.22,1.87,1.87,0,0,1-.45-.78q-3.49-8.06-7-16.13a1.48,1.48,0,0,1-.23-.77c.07-.34.24-.8.5-.91s.7.09,1,.27.29.46.4.71q3.5,8.06,7,16.13C195.67,232.83,195.75,233.12,195.89,233.54Z"/><path d="M97.06,195.23c-.22-.17-.62-.34-.7-.6a1.2,1.2,0,0,1,.23-.95,2.05,2.05,0,0,1,.84-.49l15.91-6.87.31-.13c.6-.26,1.24-.42,1.55.33s-.28,1.08-.87,1.33L98,194.93C97.72,195,97.45,195.1,97.06,195.23Z"/><path d="M144.71,113.8c-.19.24-.34.63-.61.72a1.22,1.22,0,0,1-.94-.21,1.69,1.69,0,0,1-.46-.77q-3.49-8.06-7-16.13a3.08,3.08,0,0,1-.16-.38c-.17-.54-.22-1.09.4-1.35s1,.1,1.24.63c.39.88.77,1.77,1.15,2.65q3,6.9,6,13.79C144.44,113.05,144.54,113.36,144.71,113.8Z"/><path d="M217.27,184.8c.39.13.65.21.91.31l16.5,6.54c.22.09.53.17.63.35a1.54,1.54,0,0,1,.26,1c-.07.23-.53.43-.84.48a1.88,1.88,0,0,1-.86-.23l-16.27-6.45c-.28-.11-.64-.2-.79-.42a1.36,1.36,0,0,1-.26-1C216.62,185.13,217,185,217.27,184.8Z"/><path d="M186.78,114.5c.14-.41.23-.69.34-1q3.25-8.22,6.51-16.43a1.5,1.5,0,0,1,.4-.7,1.3,1.3,0,0,1,1-.21,1,1,0,0,1,.49.75,2.08,2.08,0,0,1-.23,1Q192,106,188.8,114.16c-.11.28-.19.64-.41.79a1.42,1.42,0,0,1-1,.27C187.12,115.16,187,114.73,186.78,114.5Z"/><path d="M96.36,136.35c.43.14.75.22,1,.34l16.27,6.45.31.12c.56.23,1,.59.77,1.25s-.87.65-1.46.41l-10.59-4.19-6-2.38a1.76,1.76,0,0,1-.79-.42,1.24,1.24,0,0,1-.27-.94C95.74,136.73,96.13,136.55,96.36,136.35Z"/><path d="M145.81,216.6c-.14.4-.23.69-.34,1q-3.24,8.22-6.5,16.42a3.76,3.76,0,0,1-.2.46c-.25.47-.69.76-1.14.48-.28-.17-.4-.69-.48-1.07-.05-.21.12-.47.21-.7L143.78,217c.11-.28.19-.64.41-.79a1.41,1.41,0,0,1,1-.3C145.45,216,145.62,216.36,145.81,216.6Z"/><path d="M203.54,205c0-.85.57-1.28,1.18-1a2.89,2.89,0,0,1,.72.54l5,4.67c.16.15.4.3.44.48.07.37.2.93,0,1.09s-.77.17-1.17.17c-.12,0-.26-.19-.38-.3l-5.26-4.9A6,6,0,0,1,203.54,205Z"/><path d="M126.71,204a5.44,5.44,0,0,1-.46.68l-5,5.32c-.42.46-.92.84-1.49.32s-.28-1.05.15-1.51q2.51-2.7,5-5.38a1.79,1.79,0,0,1,.59-.44C126.18,202.69,126.77,203.14,126.71,204Z"/><path d="M205.52,127.07a.84.84,0,0,1-.86-1.27,4.49,4.49,0,0,1,.68-.83l4.5-4.84c.17-.18.34-.44.55-.48s.83-.14,1,0,.17.67.22,1c0,.06-.06.15-.12.21-1.84,2-3.68,3.95-5.53,5.91A1.12,1.12,0,0,1,205.52,127.07Z"/><path d="M127.74,125.05c0,.78-.53,1.16-1.1,1a1.88,1.88,0,0,1-.62-.4q-2.7-2.49-5.38-5c-.46-.43-.82-.94-.29-1.49s1.06-.25,1.52.18c1.77,1.65,3.55,3.3,5.31,5A4,4,0,0,1,127.74,125.05Z"/><path d="M167.24,109c0,.84-.32,1.36-.9,1.33-.76-.06-.87-.62-.89-1.25-.08-2.22-.18-4.45-.28-6.68a6.91,6.91,0,0,1,0-.91c.05-.51.27-.92.84-.94a.85.85,0,0,1,.93.94C167,102.81,167.2,107.82,167.24,109Z"/><path d="M167.13,96.52a1.27,1.27,0,0,1-.72.84c-.2.08-.59-.25-.86-.44-.08-.06-.1-.25-.1-.39,0-2.53,0-5.07.12-7.61a1.26,1.26,0,0,1,.63-.86c.52-.28,1.08.21,1.1.93C167.32,90.18,167.21,95.2,167.13,96.52Z"/><path d="M117.76,212.93a8.62,8.62,0,0,1-.64.87l-5,4.81c-.45.44-1,.77-1.5.21s-.19-1.06.26-1.5c1.68-1.62,3.35-3.27,5.07-4.85a1.79,1.79,0,0,1,1.24-.28C117.4,212.2,117.56,212.65,117.76,212.93Z"/><path d="M117.73,117.11a5.62,5.62,0,0,1-.89-.62q-2.45-2.51-4.87-5c-.41-.43-.71-.93-.21-1.45s1-.25,1.49.2c1.63,1.68,3.27,3.35,4.86,5.07a1.85,1.85,0,0,1,.33,1.23C118.44,116.7,118,116.89,117.73,117.11Z"/><path d="M221,111.68a4.91,4.91,0,0,1-.54.84q-2.57,2.51-5.16,5c-.43.42-1,.65-1.44.13s-.21-1,.22-1.44c1.7-1.65,3.39-3.3,5.13-4.91a1.68,1.68,0,0,1,1.17-.31C220.61,111,220.79,111.41,221,111.68Z"/><path d="M213.49,212.83a5.85,5.85,0,0,1,.9.59q2.48,2.55,4.93,5.11c.41.43.68.94.16,1.45s-1,.24-1.43-.2c-1.67-1.72-3.35-3.43-5-5.18a1.51,1.51,0,0,1-.28-1.1C212.83,213.27,213.22,213.08,213.49,212.83Z"/><path d="M164.84,14.06c0-.27,0-.61.13-.79s.62-.66.89-.63a1.13,1.13,0,0,1,.73.8,22.42,22.42,0,0,1,0,2.72c0,1.4,0,2.8-.09,4.2,0,.94-.39,1.45-1,1.35-.8-.12-.82-.75-.82-1.39C164.76,19.28,164.83,15.1,164.84,14.06Z"/><path d="M222.72,221.76a4.92,4.92,0,0,1,.88.61q2.35,2.41,4.68,4.88c.4.43.69.94.19,1.45s-1.06.24-1.5-.22c-1.55-1.62-3.12-3.24-4.64-4.91a1.68,1.68,0,0,1-.32-1.17C222,222.19,222.44,222,222.72,221.76Z"/><path d="M102.52,228.19c-.29-.21-.64-.33-.73-.55a1.06,1.06,0,0,1,0-.91c1.84-1.81,3.7-3.59,5.61-5.33a1,1,0,0,1,1,.12,1.67,1.67,0,0,1,.09,1.1c0,.18-.26.34-.42.49-1.53,1.46-3,2.93-4.6,4.38A8.46,8.46,0,0,1,102.52,228.19Z"/><path d="M273.53,272c0,.86-.67,1.27-1.27.93a2.92,2.92,0,0,1-.68-.59q-2.16-2.22-4.29-4.46c-.17-.17-.43-.36-.45-.57a1.39,1.39,0,0,1,.14-1,1.16,1.16,0,0,1,1-.1,3.06,3.06,0,0,1,.91.82c1.36,1.4,2.72,2.8,4.06,4.22A5,5,0,0,1,273.53,272Z"/><path d="M64.71,266.84a5.5,5.5,0,0,1-.58.89c-1.63,1.59-3.28,3.18-4.93,4.75-.44.42-1,.64-1.44.11s-.22-1,.19-1.37c1.66-1.61,3.31-3.23,5-4.79a1.46,1.46,0,0,1,1.1-.28C64.28,266.17,64.47,266.57,64.71,266.84Z"/><path d="M273.86,58a6.61,6.61,0,0,1-.63.87l-4.81,4.64c-.46.44-1,.72-1.5.17s-.19-1,.24-1.44c1.62-1.57,3.23-3.15,4.89-4.67a1.85,1.85,0,0,1,1.24-.31C273.48,57.23,273.65,57.67,273.86,58Z"/><path d="M64.57,62.88c0,.77-.55,1.2-1.13,1a2.28,2.28,0,0,1-.71-.53c-1.5-1.54-3-3.08-4.47-4.63a2.61,2.61,0,0,1-.27-.31.86.86,0,0,1,0-1.26.84.84,0,0,1,1.25,0c.27.24.52.5.76.76,1.34,1.38,2.68,2.76,4,4.16A5.36,5.36,0,0,1,64.57,62.88Z"/><path d="M228.6,101.9c.78,0,1.17.54,1,1.09a2.15,2.15,0,0,1-.51.73q-2.36,2.25-4.72,4.49c-.44.42-.92.76-1.51.26s-.34-1,.28-1.55q2.35-2.27,4.72-4.5A4.35,4.35,0,0,1,228.6,101.9Z"/><path d="M109.36,107.06c0,.83-.69,1.21-1.3.85a2.86,2.86,0,0,1-.62-.54c-1.42-1.48-2.85-3-4.27-4.47-.19-.2-.44-.41-.49-.65s-.07-.79.12-1,.67-.18,1-.19c.13,0,.28.17.39.28,1.6,1.67,3.2,3.34,4.77,5A2.53,2.53,0,0,1,109.36,107.06Z"/><path d="M167,83.49c0,.59-.21,1.08-.87,1.08s-.92-.54-.91-1.14q.06-3.39.16-6.78c0-.62.22-1.23,1-1.17s.82.62.81,1.22C167.13,77.81,167,82.33,167,83.49Z"/><path d="M167,7.49c0,.62-.23,1.14-.92,1.13s-.87-.5-.88-1.08c0-2.15,0-4.3-.05-6.44,0-.59.2-1.08.85-1.1s.89.48.9,1.06C166.87,2.19,167,6.48,167,7.49Z"/><path d="M55.61,53.33c0,.8-.55,1.21-1.13,1a2,2,0,0,1-.67-.47l-4.3-4.21a1.29,1.29,0,0,1-.44-.59,1.18,1.18,0,0,1,.12-.89,1.37,1.37,0,0,1,1-.22c.21,0,.42.24.6.41q2.16,2.08,4.31,4.21A5.16,5.16,0,0,1,55.61,53.33Z"/><path d="M277.2,55c-.73,0-1.14-.57-.9-1.15a2.16,2.16,0,0,1,.47-.66c1.4-1.44,2.81-2.87,4.22-4.31.09-.1.19-.25.3-.27.4,0,.9-.2,1.18,0a.75.75,0,0,1,.06,1.22c-1.57,1.66-3.17,3.29-4.78,4.91A1.79,1.79,0,0,1,277.2,55Z"/><path d="M81.53,131.26a2.06,2.06,0,0,1-2,2.07,2.42,2.42,0,0,1-2.4-2.24,2.08,2.08,0,0,1,2.07-2A2.38,2.38,0,0,1,81.53,131.26Z"/><path d="M252.09,200.89a2.39,2.39,0,0,1-2.36-2.19,2.06,2.06,0,0,1,2-2.08,2.41,2.41,0,0,1,2.4,2.24A2.06,2.06,0,0,1,252.09,200.89Z"/><path d="M129.72,251.41a2.36,2.36,0,0,1,2.22-2.33,2.06,2.06,0,0,1,2.05,2,2.41,2.41,0,0,1-2.27,2.38A2.07,2.07,0,0,1,129.72,251.41Z"/><path d="M276.44,275.44a6,6,0,0,1,.91.58c1.51,1.45,3,2.92,4.49,4.39.43.42.72.92.23,1.44s-1,.28-1.45-.14c-1.52-1.48-3.05-2.94-4.53-4.46a1.66,1.66,0,0,1-.33-1.16C275.77,275.87,276.18,275.68,276.44,275.44Z"/><path d="M49.56,281.64c-.79,0-1.23-.53-1-1.11a2.28,2.28,0,0,1,.52-.73c1.33-1.38,2.68-2.76,4-4.14.18-.18.35-.44.56-.47s.89-.12,1.1.08a1.17,1.17,0,0,1,.08,1.08,6.63,6.63,0,0,1-1.09,1.23c-1.13,1.16-2.26,2.33-3.41,3.47A6.4,6.4,0,0,1,49.56,281.64Z"/><path d="M202.87,79.67A2.38,2.38,0,0,1,200.69,82a2.05,2.05,0,0,1-2.09-2,2.43,2.43,0,0,1,2.23-2.42A2.08,2.08,0,0,1,202.87,79.67Z"/><path d="M165.26,52.8c0-.58.26-1.06.93-1s.82.51.81,1c0,2.15-.06,4.3-.13,6.45,0,.59-.21,1.15-1,1.1s-.82-.61-.82-1.2C165.11,58.17,165.24,53.93,165.26,52.8Z"/><path d="M91.34,91.13a3.92,3.92,0,0,1-.81-.5Q88.28,88.32,86.08,86c-.41-.44-.64-1-.1-1.44s1-.23,1.38.19c1.48,1.55,3,3.09,4.42,4.67A1.76,1.76,0,0,1,92,90.6C92,90.79,91.61,90.94,91.34,91.13Z"/><path d="M246.42,85.84a6.22,6.22,0,0,1-.59.89q-2.28,2.2-4.59,4.38c-.44.42-1,.63-1.44.11s-.22-1,.2-1.38c1.55-1.48,3.08-3,4.66-4.42a1.54,1.54,0,0,1,1.11-.29C246,85.16,246.17,85.56,246.42,85.84Z"/><path d="M244.73,245.76a6,6,0,0,1-.88-.61q-2.17-2.25-4.33-4.53c-.41-.43-.66-1-.16-1.44s1-.25,1.44.19c1.46,1.53,2.94,3,4.36,4.61a1.67,1.67,0,0,1,.3,1.17C245.44,245.36,245,245.53,244.73,245.76Z"/><path d="M91.82,239.27a6.63,6.63,0,0,1-.6.88c-1.49,1.45-3,2.89-4.52,4.33-.43.4-.94.71-1.45.2s-.25-1.06.21-1.5c1.51-1.44,3-2.9,4.55-4.3a1.78,1.78,0,0,1,1.18-.33C91.4,238.56,91.58,239,91.82,239.27Z"/><path d="M204.86,250a2,2,0,0,1-2,2.12,2.17,2.17,0,0,1-2.12-2.34,2,2,0,0,1,2-2.09A2.24,2.24,0,0,1,204.86,250Z"/><path d="M250.43,129.91a2,2,0,0,1-2.11-2,2.23,2.23,0,0,1,2.3-2.19,2,2,0,0,1,2.14,2A2.17,2.17,0,0,1,250.43,129.91Z"/><path d="M78.51,202.14a2.18,2.18,0,0,1,2.36-2.1,2,2,0,0,1,2.07,2,2.22,2.22,0,0,1-2.33,2.15A2,2,0,0,1,78.51,202.14Z"/><path d="M130.57,80.19a2,2,0,0,1-2,2.1A2.22,2.22,0,0,1,126.41,80a2,2,0,0,1,2-2.13A2.18,2.18,0,0,1,130.57,80.19Z"/><path d="M255.51,76.89a4.74,4.74,0,0,1-.56.86q-2.25,2.2-4.53,4.36c-.42.4-.92.62-1.39.15s-.26-1,.17-1.44c1.51-1.46,3-2.93,4.56-4.34a1.72,1.72,0,0,1,1.18-.29C255.12,76.2,255.29,76.61,255.51,76.89Z"/><path d="M77.53,75.1a4.52,4.52,0,0,1,.87.55c1.47,1.49,2.92,3,4.36,4.53.42.44.63,1,.1,1.45s-1,.2-1.38-.22c-1.47-1.52-3-3-4.39-4.61a1.57,1.57,0,0,1-.25-1.12C76.86,75.48,77.25,75.32,77.53,75.1Z"/><path d="M253.73,254.84a4.13,4.13,0,0,1-.83-.49c-1.48-1.52-3-3.06-4.41-4.59-.41-.42-.6-.92-.13-1.39s1-.29,1.38.13c1.5,1.54,3,3.08,4.45,4.67a1.52,1.52,0,0,1,.22,1.12C254.38,254.49,254,254.64,253.73,254.84Z"/><path d="M75.74,253.05a5.8,5.8,0,0,1,.6-.88q2.22-2.16,4.47-4.3c.44-.42,1-.67,1.45-.15s.21,1-.22,1.44c-1.51,1.46-3,2.93-4.56,4.34a1.57,1.57,0,0,1-1.11.28C76.15,253.75,76,253.34,75.74,253.05Z"/><path d="M167,46.48c0,.56-.24,1-.84,1s-.93-.47-.93-1c0-2.17.06-4.35.14-6.52,0-.54.3-1,.93-.94s.83.46.84,1C167.13,41.11,167,45.4,167,46.48Z"/><path d="M99.91,230.91a5.85,5.85,0,0,1-.59.9c-1.42,1.36-2.85,2.69-4.27,4-.44.41-1,.7-1.45.19s-.23-1.06.23-1.49c1.42-1.35,2.82-2.72,4.28-4a1.69,1.69,0,0,1,1.17-.31C99.5,230.23,99.68,230.64,99.91,230.91Z"/><path d="M231.36,99a6,6,0,0,1,.61-.88l4.27-4c.44-.42,1-.66,1.45-.15s.22,1-.22,1.44c-1.44,1.37-2.86,2.76-4.34,4.08a1.68,1.68,0,0,1-1.18.27C231.74,99.71,231.57,99.28,231.36,99Z"/><path d="M99.66,99.24a4.54,4.54,0,0,1-.83-.56q-2.1-2.18-4.15-4.38c-.4-.43-.56-.94-.07-1.39s1-.24,1.38.18c1.39,1.46,2.79,2.9,4.13,4.4a1.64,1.64,0,0,1,.26,1.18C100.36,98.88,99.93,99,99.66,99.24Z"/><path d="M231.61,230.69a6.47,6.47,0,0,1,.92.68c1.32,1.37,2.62,2.76,3.93,4.14.42.45.76,1,.21,1.51s-1.06.2-1.49-.26c-1.35-1.42-2.72-2.82-4-4.28a1.73,1.73,0,0,1-.29-1.17C230.89,231.1,231.31,230.92,231.61,230.69Z"/><path d="M165.45,64.9c0-.58.2-1.07.86-1.09s.93.52.92,1.12c0,2-.09,4-.16,5.94,0,.59-.23,1.16-.93,1.14s-.87-.61-.86-1.25C165.3,69.83,165.41,65.92,165.45,64.9Z"/><path d="M167,32.75c0,.65-.22,1.21-.95,1.19s-.87-.59-.85-1.2c.06-1.89.13-3.79.19-5.69,0-.16,0-.38.1-.48.28-.28.63-.74.91-.71a1.21,1.21,0,0,1,.75.87c0,.52,0,1.78,0,3S167,32.27,167,32.75Z"/><path d="M263.82,263.07c0,.78-.54,1.17-1.09,1a2.32,2.32,0,0,1-.72-.53q-1.86-2-3.71-4c-.13-.14-.34-.29-.35-.44,0-.4-.08-.91.14-1.16s.72-.06,1.09,0c.14,0,.26.2.37.32,1.25,1.35,2.52,2.69,3.76,4A4.85,4.85,0,0,1,263.82,263.07Z"/><path d="M67.45,66.93c0-.82.55-1.24,1.12-1a2.2,2.2,0,0,1,.71.54c1.21,1.28,2.41,2.58,3.61,3.87a5,5,0,0,1,.37.43.89.89,0,0,1,0,1.27A.86.86,0,0,1,72,72c-.27-.23-.5-.51-.75-.77-1.09-1.17-2.18-2.33-3.26-3.51A4.9,4.9,0,0,1,67.45,66.93Z"/><path d="M263.69,66.79c.82,0,1.23.57,1,1.14a2.16,2.16,0,0,1-.55.7q-1.92,1.82-3.86,3.61c-.18.17-.37.42-.57.45-.37,0-.9.07-1.1-.14a1.25,1.25,0,0,1,0-1.09,3.37,3.37,0,0,1,.85-.88c1.17-1.09,2.33-2.19,3.51-3.26A4.9,4.9,0,0,1,263.69,66.79Z"/><path d="M67.61,263.16c-.83,0-1.26-.53-1-1.1a2.2,2.2,0,0,1,.54-.72c1.3-1.23,2.61-2.44,3.92-3.66.18-.16.38-.42.58-.43a1.61,1.61,0,0,1,1.09.19c.18.17.14.72,0,1a2.61,2.61,0,0,1-.72.77c-1.21,1.13-2.41,2.26-3.63,3.37A7,7,0,0,1,67.61,263.16Z"/><path d="M129.69,260.48a2.05,2.05,0,1,1-4.1,0,2.11,2.11,0,0,1,2.11-2.1A2.07,2.07,0,0,1,129.69,260.48Z"/><path d="M208.35,259.4a2,2,0,0,1-2,2.06,2.15,2.15,0,0,1-2.13-2.17,2,2,0,0,1,2-2A2.1,2.1,0,0,1,208.35,259.4Z"/><path d="M127,70.62a2,2,0,0,1-2,2.06,2.12,2.12,0,0,1-2.12-2.17,2,2,0,0,1,2-2A2.16,2.16,0,0,1,127,70.62Z"/><path d="M207,70.74a2.11,2.11,0,0,1-2.2,2,2.08,2.08,0,0,1-1.9-2.2,2.05,2.05,0,1,1,4.1.19Z"/><path d="M73.33,205.58a2.12,2.12,0,0,1-2.16,2.12,2,2,0,0,1-2-2,2.14,2.14,0,0,1,2.12-2.08A2,2,0,0,1,73.33,205.58Z"/><path d="M261.1,205a2.11,2.11,0,0,1-2.08-2.13,2.06,2.06,0,0,1,2.13-2,2.05,2.05,0,1,1,0,4.1Z"/><path d="M259.93,126.39a2,2,0,0,1-2-2.08,2.11,2.11,0,0,1,2.23-2,2,2,0,0,1,1.95,2A2.15,2.15,0,0,1,259.93,126.39Z"/><path d="M70.09,124.94a2.11,2.11,0,0,1,2.16,2A2.08,2.08,0,0,1,70.19,129,2.15,2.15,0,0,1,68,127,2.11,2.11,0,0,1,70.09,124.94Z"/><path d="M198.26,238.28a1.94,1.94,0,0,1,2,2,2,2,0,0,1-1.93,2,2,2,0,0,1-2-2A2,2,0,0,1,198.26,238.28Z"/><path d="M90.33,199.61a2,2,0,0,1-1.94-2,2,2,0,0,1,2-2,2,2,0,0,1,1.93,2A1.93,1.93,0,0,1,90.33,199.61Z"/><path d="M132.93,91.68a2,2,0,0,1,.07-3.94,2,2,0,0,1,1.94,2.05A2,2,0,0,1,132.93,91.68Z"/><path d="M240.9,130.34a2,2,0,0,1,2,1.93,2,2,0,0,1-2,2,2,2,0,0,1-2-2A1.94,1.94,0,0,1,240.9,130.34Z"/><path d="M137.48,241.32a2,2,0,1,1-2-2A2,2,0,0,1,137.48,241.32Z"/><path d="M242,193.12a2,2,0,1,1-2,2A2,2,0,0,1,242,193.12Z"/><path d="M195.1,89.77a2,2,0,1,1,2,2A2,2,0,0,1,195.1,89.77Z"/><path d="M89.29,136.83a2,2,0,1,1,2-2A2,2,0,0,1,89.29,136.83Z"/></g><path d="M221.66,166.58c-.84,0-1.36-.32-1.32-.9,0-.76.61-.87,1.24-.89l6.68-.28a6.91,6.91,0,0,1,.91,0c.51.05.93.27.94.84a.85.85,0,0,1-.94.93C227.85,166.3,222.85,166.54,221.66,166.58Z"/><path d="M234.15,166.47a1.29,1.29,0,0,1-.85-.72c-.08-.2.26-.59.44-.86.06-.09.26-.11.39-.1,2.54,0,5.08,0,7.61.12a1.3,1.3,0,0,1,.87.63c.27.52-.22,1.08-.94,1.1C240.49,166.66,235.46,166.54,234.15,166.47Z"/><path d="M316.6,164.18a1.37,1.37,0,0,1,.8.13c.28.23.66.62.62.89a1.12,1.12,0,0,1-.8.73,22.26,22.26,0,0,1-2.71,0c-1.41,0-2.81,0-4.21-.09-.94,0-1.44-.39-1.35-1,.13-.8.76-.82,1.39-.82Z"/><path d="M247.18,166.31c-.59,0-1.08-.21-1.09-.86s.55-.92,1.14-.91c2.26,0,4.53.09,6.79.16.61,0,1.22.22,1.17,1s-.62.81-1.23.81C252.86,166.47,248.34,166.32,247.18,166.31Z"/><path d="M323.17,166.28c-.62,0-1.14-.23-1.13-.91s.5-.88,1.09-.88c2.14,0,4.29,0,6.44-.06.58,0,1.08.21,1.09.85s-.47.9-1.05.91C328.48,166.21,324.19,166.29,323.17,166.28Z"/><path d="M277.87,164.6c.58,0,1.05.26,1,.93s-.5.82-1.05.81q-3.22,0-6.45-.13c-.58,0-1.15-.21-1.1-1s.61-.82,1.21-.82C272.49,164.44,276.74,164.58,277.87,164.6Z"/><path d="M284.19,166.31c-.57,0-1-.23-1-.83s.46-.94,1-.93c2.18,0,4.35.06,6.53.14a.85.85,0,0,1,.94.93c0,.61-.47.83-1,.84C289.56,166.47,285.26,166.32,284.19,166.31Z"/><path d="M265.76,164.79c.59,0,1.08.19,1.1.86s-.53.93-1.12.92c-2,0-4-.09-5.95-.16-.58,0-1.16-.23-1.14-.93s.62-.87,1.25-.86C260.84,164.64,264.75,164.75,265.76,164.79Z"/><path d="M297.91,166.29c-.64,0-1.21-.22-1.18-1s.58-.86,1.19-.84l5.7.19c.16,0,.38,0,.47.09.29.28.75.64.72.92a1.2,1.2,0,0,1-.88.74c-.51,0-1.78,0-3,0S298.39,166.29,297.91,166.29Z"/><path d="M164.13,220.82c0-.84.33-1.37.9-1.33.76.06.87.61.9,1.24.08,2.23.18,4.46.27,6.69a6.76,6.76,0,0,1,0,.9c-.05.51-.28.93-.85,1a.85.85,0,0,1-.92-.94C164.41,227,164.17,222,164.13,220.82Z"/><path d="M164.25,233.3a1.26,1.26,0,0,1,.72-.85c.19-.08.58.26.86.45.08.06.1.25.1.38,0,2.54,0,5.08-.13,7.61a1.25,1.25,0,0,1-.62.87c-.53.27-1.09-.21-1.1-.94C164.05,239.64,164.17,234.62,164.25,233.3Z"/><path d="M166.53,315.76a1.42,1.42,0,0,1-.12.79c-.23.29-.62.66-.9.63a1.17,1.17,0,0,1-.73-.81,24.48,24.48,0,0,1,0-2.71c0-1.4,0-2.8.08-4.21,0-.93.4-1.44,1-1.35.8.13.83.76.82,1.39C166.62,310.54,166.55,314.71,166.53,315.76Z"/><path d="M164.4,246.33c0-.59.21-1.08.87-1.08s.92.54.91,1.14c0,2.26-.09,4.52-.17,6.78,0,.61-.22,1.22-1,1.17s-.81-.62-.8-1.23C164.24,252,164.4,247.49,164.4,246.33Z"/><path d="M164.43,322.32c0-.62.23-1.14.92-1.13s.87.51.88,1.09c0,2.15,0,4.29.05,6.44,0,.59-.21,1.08-.85,1.1s-.89-.48-.91-1.06C164.5,327.63,164.43,323.34,164.43,322.32Z"/><path d="M166.12,277c0,.58-.27,1.06-.93,1s-.83-.5-.82-1.05q0-3.23.13-6.45c0-.58.22-1.14,1-1.09s.82.6.82,1.2C166.27,271.64,166.14,275.89,166.12,277Z"/><path d="M164.4,283.34c0-.56.24-1,.84-1s.93.46.92,1c0,2.18-.06,4.36-.13,6.53,0,.53-.31,1-.93.94s-.84-.47-.84-1C164.25,288.71,164.39,284.41,164.4,283.34Z"/><path d="M165.93,264.92c0,.58-.2,1.07-.86,1.09s-.93-.52-.92-1.12c0-2,.09-4,.16-5.94,0-.59.22-1.16.93-1.15s.86.62.85,1.25C166.08,260,166,263.9,165.93,264.92Z"/><path d="M164.43,297.07c0-.65.21-1.22.95-1.19s.87.58.85,1.19c-.06,1.9-.13,3.8-.2,5.7,0,.16,0,.38-.09.47-.28.29-.63.75-.91.72a1.19,1.19,0,0,1-.75-.87c-.05-.52,0-1.79,0-3S164.42,297.55,164.43,297.07Z"/><path d="M1.33,165.4c-.84,0-1.37-.32-1.33-.9.05-.76.61-.87,1.24-.89,2.23-.08,4.46-.18,6.69-.28a6.76,6.76,0,0,1,.9,0c.51,0,.93.27.95.84a.85.85,0,0,1-.94.93C7.52,165.13,2.51,165.36,1.33,165.4Z"/><path d="M13.81,165.29a1.29,1.29,0,0,1-.85-.72c-.08-.2.26-.59.45-.86.06-.08.25-.1.38-.1,2.54,0,5.08,0,7.61.12a1.26,1.26,0,0,1,.87.63c.27.52-.21,1.08-.94,1.1C20.15,165.48,15.13,165.37,13.81,165.29Z"/><path d="M96.27,163c.27,0,.61,0,.79.13s.66.62.63.89a1.13,1.13,0,0,1-.81.73,22.26,22.26,0,0,1-2.71,0c-1.4,0-2.8,0-4.21-.09-.93,0-1.44-.39-1.35-1,.13-.8.76-.82,1.39-.82Z"/><path d="M26.84,165.14c-.59,0-1.08-.21-1.08-.87s.54-.92,1.14-.91q3.39.06,6.78.16c.61,0,1.22.22,1.17,1s-.62.82-1.23.81C32.52,165.29,28,165.14,26.84,165.14Z"/><path d="M102.83,165.11c-.62,0-1.14-.24-1.13-.92s.51-.87,1.09-.88c2.15,0,4.29,0,6.44-.05.59,0,1.08.2,1.1.85s-.48.89-1.06.9C108.14,165,103.85,165.11,102.83,165.11Z"/><path d="M57.53,163.42c.58,0,1.06.26,1,.93s-.5.82-1,.81c-2.15,0-4.3-.06-6.45-.13-.58,0-1.14-.21-1.09-.95s.6-.82,1.2-.82C52.15,163.27,56.4,163.4,57.53,163.42Z"/><path d="M63.85,165.14c-.56,0-1-.24-1-.84s.46-.93,1-.93c2.18,0,4.36.06,6.53.14.53,0,1,.3.94.93s-.47.83-1,.84C69.22,165.29,64.92,165.14,63.85,165.14Z"/><path d="M45.43,163.61c.58,0,1.07.19,1.09.86s-.52.93-1.12.92c-2,0-4-.09-5.94-.16-.59,0-1.16-.23-1.15-.93s.62-.87,1.25-.86C40.5,163.46,44.41,163.57,45.43,163.61Z"/><path d="M77.58,165.11c-.65,0-1.22-.22-1.19-1s.58-.87,1.19-.85l5.7.19c.16,0,.38,0,.47.09.29.29.75.64.72.92a1.21,1.21,0,0,1-.87.75c-.52,0-1.79,0-3,0S78.06,165.11,77.58,165.11Z"/></g></g></g></svg>